<?xml version="1.0" encoding="utf-8"?>
<svg version="1.1" xmlns:xlink="http://www.w3.org/1999/xlink" width="36px" height="37px" xmlns="http://www.w3.org/2000/svg">
  <g transform="matrix(1 0 0 1 -641 -107 )">
    <path d="M 659 107  C 669.08 107  677 115.14  677 125.5  C 677 135.86  669.08 144  659 144  C 648.92 144  641 135.86  641 125.5  C 641 115.14  648.92 107  659 107  Z " fill-rule="nonzero" fill="#ffffff" stroke="none" />
    <path d="M 659 107.5  C 668.8 107.5  676.5 115.42  676.5 125.5  C 676.5 135.58  668.8 143.5  659 143.5  C 649.2 143.5  641.5 135.58  641.5 125.5  C 641.5 115.42  649.2 107.5  659 107.5  Z " stroke-width="1" stroke="#797979" fill="none" />
  </g>
</svg>