<?xml version="1.0" encoding="utf-8"?>
<svg version="1.1" xmlns:xlink="http://www.w3.org/1999/xlink" width="49px" height="45px" xmlns="http://www.w3.org/2000/svg">
  <g transform="matrix(1 0 0 1 -809 -199 )">
    <path d="M 833.5 199  C 847.22 199  858 208.9  858 221.5  C 858 234.1  847.22 244  833.5 244  C 819.78 244  809 234.1  809 221.5  C 809 208.9  819.78 199  833.5 199  Z " fill-rule="nonzero" fill="#ffffff" stroke="none" />
    <path d="M 833.5 199.5  C 846.94 199.5  857.5 209.18  857.5 221.5  C 857.5 233.82  846.94 243.5  833.5 243.5  C 820.06 243.5  809.5 233.82  809.5 221.5  C 809.5 209.18  820.06 199.5  833.5 199.5  Z " stroke-width="1" stroke="#797979" fill="none" />
  </g>
</svg>